<svg width="238" height="44" viewBox="0 0 238 44" fill="none" xmlns="http://www.w3.org/2000/svg">
<path fill-rule="evenodd" clip-rule="evenodd" d="M149.692 14.1862C148.575 12.7287 146.88 12 144.611 12C142.287 12 140.372 12.6298 138.864 13.8893C137.357 15.1309 136.408 16.8583 136.018 19.0716L135.193 23.8489C134.785 26.2781 135.122 28.2484 136.204 29.7598C137.303 31.2534 138.98 32 141.232 32C143.627 32 145.578 31.3703 147.084 30.1107C148.592 28.8511 149.541 27.0698 149.931 24.7666L150.757 19.9892C151.164 17.56 150.809 15.6257 149.692 14.1862ZM140.301 19.4493C140.727 17.1101 141.977 15.9406 144.051 15.9406C145.045 15.9406 145.746 16.2735 146.154 16.9393C146.579 17.587 146.695 18.4687 146.499 19.5843L145.648 24.5236C145.453 25.6392 145.027 26.5121 144.371 27.1418C143.715 27.7536 142.872 28.0594 141.844 28.0594C140.886 28.0594 140.194 27.7265 139.768 27.0607C139.342 26.377 139.228 25.4683 139.423 24.3347L140.301 19.4493Z" fill="#526ED3"/>
<path d="M43.4067 12.3508H39.6557C39.3896 12.3508 39.2299 12.4948 39.1767 12.7827L36.0109 31.1363C35.9577 31.4782 36.0996 31.6491 36.4365 31.6491H39.6822C40.0015 31.6491 40.17 31.5053 40.1878 31.2173L40.7996 27.6276C41.3849 23.9389 41.7927 21.1498 42.0233 19.2604H42.1563C42.2627 19.8182 42.6884 21.5546 43.4333 24.4696L44.2315 27.2226C44.3201 27.4925 44.4975 27.6276 44.7636 27.6276H47.1845C47.4151 27.6276 47.5923 27.5196 47.7165 27.3037L49.4191 24.6045C50.8202 22.2834 51.8668 20.457 52.5585 19.1255L52.6914 19.1524C51.8755 23.0571 51.317 25.9092 51.0155 27.7086L50.4302 31.1363C50.3948 31.4782 50.5366 31.6491 50.8559 31.6491H54.1014C54.3852 31.6491 54.5537 31.5053 54.607 31.2173L57.7727 12.8637C57.826 12.5218 57.6841 12.3508 57.3471 12.3508H53.463C53.2147 12.3508 53.0284 12.4498 52.9043 12.6477L49.9247 17.3172C49.091 18.6487 48.0092 20.511 46.679 22.9041H46.5992C46.3509 21.7166 45.9074 19.8722 45.269 17.3711L43.9388 12.7557C43.8679 12.4858 43.6905 12.3508 43.4067 12.3508Z" fill="#526ED3"/>
<path d="M65.376 12.3508H62.1038C61.82 12.3508 61.6515 12.4948 61.5982 12.7827L58.4059 31.1363C58.3704 31.4782 58.5123 31.6491 58.8315 31.6491H62.1303C62.3964 31.6491 62.556 31.5053 62.6091 31.2173L65.8017 12.8637C65.855 12.5218 65.713 12.3508 65.376 12.3508Z" fill="#526ED3"/>
<path d="M73.5907 12.3508H70.0791C69.7953 12.3508 69.6356 12.4948 69.6001 12.7827L66.4078 31.1363C66.3546 31.4782 66.4876 31.6491 66.8068 31.6491H70.0791C70.3451 31.6491 70.5048 31.5053 70.5579 31.2173L71.2497 27.1687C71.6043 25.1714 71.9413 22.5082 72.2606 19.1794L72.367 19.1255C72.8282 21.3927 73.4398 23.5341 74.2025 25.5493L76.3042 31.2712C76.4107 31.5231 76.588 31.6491 76.8364 31.6491H80.3213C80.6052 31.6491 80.7737 31.5053 80.827 31.2173L84.0193 12.8637C84.0725 12.5218 83.9306 12.3508 83.5936 12.3508H80.3481C80.0821 12.3508 79.9224 12.4948 79.8691 12.7827L79.0711 17.425C78.6277 20.0881 78.2729 22.5802 78.0069 24.9015L77.8738 24.9284C77.3773 23.0211 76.8276 21.0868 76.2246 19.1255L74.1228 12.7287C74.0696 12.4768 73.8922 12.3508 73.5907 12.3508Z" fill="#526ED3"/>
<path fill-rule="evenodd" clip-rule="evenodd" d="M94.569 12.3508H88.3171C88.0334 12.3508 87.8736 12.4948 87.8382 12.7827L84.6458 31.1363C84.5926 31.4782 84.7256 31.6491 85.0449 31.6491H91.4031C93.7619 31.6491 95.642 31.1003 97.0431 30.0027C98.4619 28.905 99.3843 27.0787 99.81 24.5236L100.581 20.0702C101.007 17.5331 100.635 15.6167 99.464 14.3212C98.2934 13.0076 96.6619 12.3508 94.569 12.3508ZM89.4345 27.7355L91.4298 16.2644H94.0901C95.0477 16.2644 95.7129 16.5254 96.0854 17.0472C96.4578 17.5511 96.5465 18.3788 96.3514 19.5304L95.5267 24.3347C95.1187 26.6019 93.9659 27.7355 92.0682 27.7355H89.4345Z" fill="#526ED3"/>
<path d="M119.529 12.3508H115.778C115.512 12.3508 115.352 12.4948 115.299 12.7827L112.133 31.1363C112.08 31.4782 112.222 31.6491 112.559 31.6491H115.804C116.123 31.6491 116.292 31.5053 116.31 31.2173L116.922 27.6276C117.507 23.9389 117.915 21.1498 118.145 19.2604H118.278C118.385 19.8182 118.81 21.5546 119.555 24.4696L120.353 27.2226C120.442 27.4925 120.62 27.6276 120.886 27.6276H123.307C123.537 27.6276 123.714 27.5196 123.838 27.3037L125.541 24.6045C126.942 22.2834 127.989 20.457 128.68 19.1255L128.813 19.1524C127.997 23.0571 127.439 25.9092 127.137 27.7086L126.552 31.1363C126.517 31.4782 126.659 31.6491 126.978 31.6491H130.223C130.507 31.6491 130.676 31.5053 130.729 31.2173L133.895 12.8637C133.948 12.5218 133.806 12.3508 133.469 12.3508H129.585C129.337 12.3508 129.15 12.4498 129.026 12.6477L126.047 17.3172C125.213 18.6487 124.131 20.511 122.801 22.9041H122.721C122.473 21.7166 122.029 19.8722 121.391 17.3711L120.061 12.7557C119.99 12.4858 119.812 12.3508 119.529 12.3508Z" fill="#526ED3"/>
<path d="M159.169 12.3508H155.658C155.374 12.3508 155.214 12.4948 155.179 12.7827L151.986 31.1363C151.934 31.4782 152.066 31.6491 152.386 31.6491H155.658C155.924 31.6491 156.084 31.5053 156.136 31.2173L156.828 27.1687C157.183 25.1714 157.52 22.5082 157.839 19.1794L157.946 19.1255C158.407 21.3927 159.019 23.5341 159.782 25.5493L161.883 31.2712C161.989 31.5231 162.166 31.6491 162.415 31.6491H165.9C166.184 31.6491 166.353 31.5053 166.405 31.2173L169.598 12.8637C169.652 12.5218 169.51 12.3508 169.173 12.3508H165.927C165.66 12.3508 165.501 12.4948 165.448 12.7827L164.65 17.425C164.206 20.0881 163.851 22.5802 163.586 24.9015L163.453 24.9284C162.956 23.0211 162.407 21.0868 161.804 19.1255L159.701 12.7287C159.649 12.4768 159.471 12.3508 159.169 12.3508Z" fill="#526ED3"/>
<path d="M184.856 12.3508H173.923C173.657 12.3508 173.497 12.4948 173.443 12.7827L170.225 31.1363C170.189 31.4782 170.331 31.6491 170.65 31.6491H182.01C182.293 31.6491 182.462 31.5053 182.516 31.2173L182.994 28.2752C183.03 27.9334 182.888 27.7625 182.568 27.7625H175.04L175.731 23.7408H182.143C182.409 23.7408 182.568 23.597 182.622 23.309L183.127 20.4749C183.181 20.1331 183.048 19.9622 182.728 19.9622H176.397L177.062 16.2105H184.298C184.564 16.2105 184.723 16.0666 184.777 15.7787L185.282 12.8637C185.336 12.5218 185.193 12.3508 184.856 12.3508Z" fill="#526ED3"/>
<path d="M190.61 12.3508H187.152C186.992 12.3508 186.876 12.4047 186.805 12.5127C186.735 12.6027 186.726 12.7198 186.78 12.8637L190.318 24.7126L189.147 31.1363C189.093 31.4782 189.235 31.6491 189.572 31.6491H192.898C193.164 31.6491 193.324 31.5053 193.376 31.2173L194.574 24.7934L202.103 12.9176C202.191 12.7557 202.209 12.6207 202.156 12.5127C202.103 12.4047 201.987 12.3508 201.81 12.3508H198.139C197.908 12.3508 197.731 12.4587 197.607 12.6746L193.084 20.7179H193.031L191.089 12.7557C191.036 12.4858 190.876 12.3508 190.61 12.3508Z" fill="#526ED3"/>
<path d="M220.19 12.3508H209.255C208.989 12.3508 208.829 12.4948 208.777 12.7827L205.557 31.1363C205.522 31.4782 205.664 31.6491 205.983 31.6491H217.343C217.627 31.6491 217.796 31.5053 217.848 31.2173L218.328 28.2752C218.363 27.9334 218.22 27.7625 217.902 27.7625H210.373L211.065 23.7408H217.476C217.742 23.7408 217.902 23.597 217.955 23.309L218.461 20.4749C218.513 20.1331 218.381 19.9622 218.062 19.9622H211.73L212.394 16.2105H219.631C219.897 16.2105 220.057 16.0666 220.11 15.7787L220.616 12.8637C220.668 12.5218 220.527 12.3508 220.19 12.3508Z" fill="#526ED3"/>
<path d="M227.645 12.3508H224.294C224.028 12.3508 223.868 12.4948 223.815 12.7827L221.846 23.9838C221.438 26.467 221.757 28.4192 222.804 29.8408C223.868 31.2622 225.491 31.973 227.672 31.973C230.014 31.973 231.876 31.3703 233.259 30.1647C234.661 28.9411 235.547 27.2137 235.919 24.9826L237.995 12.8637C238.03 12.5218 237.889 12.3508 237.569 12.3508H234.217C233.951 12.3508 233.791 12.4948 233.738 12.7827L231.716 24.6585C231.522 25.7561 231.122 26.5929 230.519 27.1687C229.933 27.7266 229.189 28.0055 228.284 28.0055C227.398 28.0055 226.75 27.7084 226.343 27.1146C225.935 26.5028 225.827 25.6212 226.023 24.4696L228.071 12.8637C228.125 12.5218 227.982 12.3508 227.645 12.3508Z" fill="#526ED3"/>
<path d="M109.932 21.7166H103.441C103.175 21.7166 103.015 21.8605 102.962 22.1485L102.483 24.9015C102.43 25.2433 102.563 25.4144 102.882 25.4144H109.373C109.64 25.4144 109.799 25.2793 109.852 25.0095L110.331 22.2295C110.384 21.8876 110.251 21.7166 109.932 21.7166Z" fill="#526ED3"/>
<path d="M202.654 27.8974C202.263 27.3757 201.705 27.1146 200.978 27.1146C200.322 27.1146 199.773 27.3128 199.328 27.7086C198.885 28.0865 198.602 28.5902 198.477 29.22C198.336 29.9757 198.46 30.6145 198.85 31.1363C199.257 31.6581 199.817 31.9191 200.526 31.9191C201.2 31.9191 201.758 31.7301 202.202 31.3523C202.663 30.9564 202.947 30.4435 203.053 29.8138C203.178 29.0401 203.045 28.4013 202.654 27.8974Z" fill="#526ED3"/>
<path d="M11.7571 12H8.27172C7.9694 12 7.78992 12.1496 7.73317 12.4487L0.00566409 31.5174C-0.0320983 31.8726 0.118953 32.0502 0.459034 32.0502H3.97269C4.25613 32.0502 4.42606 31.9008 4.4827 31.6016L12.2104 12.5329C12.2672 12.1776 12.116 12 11.7571 12Z" fill="#A1B1E7"/>
<path d="M19.6518 12H16.1665C15.8642 12 15.6847 12.1496 15.628 12.4487L7.90045 31.5174C7.86269 31.8726 8.01374 32.0502 8.35382 32.0502H11.8675C12.1509 32.0502 12.3208 31.9008 12.3775 31.6016L20.1052 12.5329C20.162 12.1776 20.0108 12 19.6518 12Z" fill="#526ED3"/>
<path d="M27.5466 12H24.0613C23.759 12 23.5795 12.1496 23.5227 12.4487L15.7952 31.5174C15.7575 31.8726 15.9085 32.0502 16.2486 32.0502H19.7623C20.0457 32.0502 20.2156 31.9008 20.2723 31.6016L28 12.5329C28.0568 12.1776 27.9056 12 27.5466 12Z" fill="#3150BF"/>
</svg>
