<svg width="22" height="18" viewBox="0 0 22 18" fill="none" xmlns="http://www.w3.org/2000/svg">
<path d="M2.9994 1L18.9994 17M15.4994 13.7559C14.1468 14.4845 12.618 14.9999 10.9994 14.9999C7.46875 14.9999 4.36575 12.5478 2.58632 10.7788C2.11661 10.3119 1.8818 10.0784 1.73231 9.62012C1.6257 9.29328 1.62567 8.70657 1.73231 8.37974C1.88185 7.92147 2.11715 7.68745 2.58778 7.21967C3.48467 6.32821 4.71752 5.26359 6.17171 4.42676M18.4994 11.6335C18.8325 11.3405 19.1375 11.0523 19.4112 10.7803L19.4141 10.7772C19.8827 10.3114 20.1177 10.0779 20.2669 9.62061C20.3736 9.29378 20.3733 8.70684 20.2667 8.38C20.1173 7.92187 19.8822 7.68775 19.4128 7.22111C17.6334 5.45208 14.5301 3 10.9994 3C10.6619 3 10.3283 3.02241 9.9994 3.06448M12.3223 10.5C11.9697 10.8112 11.5066 11 10.9994 11C9.89483 11 8.9994 10.1046 8.9994 9C8.9994 8.4605 9.21302 7.97108 9.56028 7.61133" stroke="#A6ABB0" stroke-width="2" stroke-linecap="round" stroke-linejoin="round"/>
</svg>
