<svg width="22" height="18" viewBox="0 0 22 18" fill="none" xmlns="http://www.w3.org/2000/svg">
  <path d="M11 3C14.531 3 17.634 5.452 19.413 7.221C19.882 7.688 20.117 7.922 20.267 8.38C20.373 8.707 20.373 9.294 20.267 9.621C20.117 10.078 19.883 10.311 19.414 10.778C17.634 12.547 14.531 15 11 15C7.469 15 4.366 12.548 2.587 10.779C2.117 10.312 1.882 10.078 1.732 9.62C1.626 9.293 1.626 8.707 1.732 8.38C1.882 7.922 2.116 7.688 2.586 7.22C4.366 5.451 7.469 3 11 3Z" stroke="#A6ABB0" stroke-width="2" stroke-linecap="round" stroke-linejoin="round"/>
  <path d="M11 6C11.7956 6 12.5587 6.31607 13.1213 6.87868C13.6839 7.44129 14 8.20435 14 9C14 9.79565 13.6839 10.5587 13.1213 11.1213C12.5587 11.6839 11.7956 12 11 12C10.2044 12 9.44129 11.6839 8.87868 11.1213C8.31607 10.5587 8 9.79565 8 9C8 8.20435 8.31607 7.44129 8.87868 6.87868C9.44129 6.31607 10.2044 6 11 6Z" stroke="#A6ABB0" stroke-width="2" stroke-linecap="round" stroke-linejoin="round"/>
</svg>